<?xml version="1.0" encoding="utf-8"?>
<!-- Generator: Adobe Illustrator 18.1.0, SVG Export Plug-In . SVG Version: 6.00 Build 0)  -->
<!DOCTYPE svg PUBLIC "-//W3C//DTD SVG 1.1//EN" "http://www.w3.org/Graphics/SVG/1.1/DTD/svg11.dtd">
<svg version="1.1" id="Calque_1" xmlns="http://www.w3.org/2000/svg" xmlns:xlink="http://www.w3.org/1999/xlink" x="0px" y="0px"
	 viewBox="0 0 444.8 283.5" enable-background="new 0 0 444.8 283.5" xml:space="preserve">
<g>
	<g>
		<path fill="#FFFFFF" d="M271.6,89.2l-11.8,20.5h-12.4l-14.6,25.3h12.4l-9.4,16.3h30.4c7.8-9.5,12.4-21.6,12.4-34.9
			C278.8,106.4,276.2,97.2,271.6,89.2z"/>
		<path fill="#FFFFFF" d="M211.4,151.2L211.4,151.2L211.4,151.2L211.4,151.2l37.8-65.7h-32l-21.8,37.9l-19.7-34.3
			c-4.6,8-7.2,17.3-7.2,27.2c0,13.2,4.7,25.4,12.4,34.9L211.4,151.2L211.4,151.2z"/>
	</g>
	<g>
		<path fill="#FFFFFF" d="M147.6,195.7c0-13.2,6.6-19.6,17.4-19.6s17.4,6.4,17.4,19.6c0,13.1-6.6,19.6-17.4,19.6
			S147.6,208.8,147.6,195.7z M151.5,195.7c0,10.9,5,16.1,13.5,16.1s13.5-5.2,13.5-16.1c0-11-5-16.1-13.5-16.1
			S151.5,184.8,151.5,195.7z"/>
		<path fill="#FFFFFF" d="M212.4,177.7c0.2-0.4,0.7-1.2,1.8-1.2s1.9,0.8,1.9,1.9c0,0.3-0.1,0.7-0.2,0.8l-13.1,34.5
			c-0.3,0.8-1.1,1.3-1.8,1.3s-1.5-0.5-1.8-1.3l-13.1-34.5c-0.1-0.2-0.2-0.5-0.2-0.8c0-1.1,0.8-1.9,1.9-1.9s1.6,0.8,1.8,1.2
			l11.3,30.1L212.4,177.7z"/>
		<path fill="#FFFFFF" d="M225.4,196.9V213c0,1-0.8,1.9-1.9,1.9c-1.1,0-1.9-0.9-1.9-1.9v-34.7c0-1,0.8-1.9,1.9-1.9
			c1.1,0,1.9,0.9,1.9,1.9v15.1h19.4v-15.1c0-1,0.8-1.9,1.9-1.9c1.1,0,1.9,0.9,1.9,1.9V213c0,1-0.8,1.9-1.9,1.9
			c-1.1,0-1.9-0.9-1.9-1.9v-16.1H225.4z"/>
		<path fill="#FFFFFF" d="M254.9,212.3c0-1.8,1-2.7,2.6-2.7c1.6,0,2.6,0.8,2.6,2.7c0,1.8-1,2.6-2.6,2.6
			C255.9,214.9,254.9,214.2,254.9,212.3z"/>
		<path fill="#FFFFFF" d="M269.2,190.5v1.8c1.1-1.9,3.9-3.9,7.6-3.9c7.3,0,11.7,4.2,11.7,13.4s-4.4,13.5-11.7,13.5
			c-3.7,0-6.4-2-7.6-3.9v12.6c0,1-0.8,1.8-1.8,1.8s-1.8-0.8-1.8-1.8v-33.5c0-1,0.8-1.8,1.8-1.8S269.2,189.5,269.2,190.5z M276.8,212
			c5.1,0,8-3.2,8-10.2c0-7-3-10.2-8.2-10.2c-4.1,0-7.6,2.9-7.6,10.2C269.1,209,272.5,212,276.8,212z"/>
		<path fill="#FFFFFF" d="M297.1,176.5v31.9c0,2.2,0.7,3.2,2.2,3.2c0.9,0,1.7,0.7,1.7,1.7c0,1-0.8,1.7-1.7,1.7
			c-3.7,0-5.8-2.2-5.8-6.5v-31.9c0-0.9,0.8-1.8,1.8-1.8C296.3,174.7,297.1,175.5,297.1,176.5z"/>
	</g>
</g>
</svg>
